<mxfile host="app.diagrams.net" modified="2023-05-04T05:57:09.683Z" agent="Mozilla/5.0 (Windows NT 10.0; Win64; x64) AppleWebKit/537.36 (KHTML, like Gecko) Chrome/112.0.0.0 Safari/537.36 Edg/112.0.1722.68" version="21.2.7" etag="3d6jwJ7AAihk3rCp_juS" type="github">
  <diagram name="第 1 页" id="v3P6NcsCh_ItnPV5XtSY">
    <mxGraphModel>
      <root>
        <mxCell id="0" />
        <mxCell id="1" parent="0" />
      </root>
    </mxGraphModel>
  </diagram>
</mxfile>
